REM MD5 b812d02cd477eaf5d291914e885091d2
FILE "Euro Demo 05-98 (Germany).bin" BINARY
  TRACK 01 MODE2/2352
    INDEX 01 00:00:00
  TRACK 02 AUDIO
    INDEX 00 22:42:52
    INDEX 01 22:44:52
  TRACK 03 AUDIO
    INDEX 00 26:18:56
    INDEX 01 26:20:56
  TRACK 04 AUDIO
    INDEX 00 28:39:04
    INDEX 01 28:41:04
REM LEADOUT 31:42:35
